<svg xmlns="http://www.w3.org/2000/svg" width="256" height="16" viewBox="0 0 256 16">
  <g id="purple">
    <rect    fill="#208" x="0" y="0" width="64" height="16"/>
    <polygon fill="#85b" points="0,0 64,0 0,16"/>
    <rect    fill="#529" x="1" y="1" width="62" height="14"/>
  </g>
  <g id="red" transform="translate(64)">
    <rect    fill="#713" x="0" y="0" width="64" height="16"/>
    <polygon fill="#e36" points="0,0 64,0 0,16"/>
    <rect    fill="#b13" x="1" y="1" width="62" height="14"/>
  </g>
  <g id="yellow" transform="translate(128)">
    <rect    fill="#852" x="0" y="0" width="64" height="16"/>
    <polygon fill="#fd5" points="0,0 64,0 0,16"/>
    <rect    fill="#ea1" x="1" y="1" width="62" height="14"/>
  </g>
  <g id="green" transform="translate(192)">
    <rect    fill="#257" x="0" y="0" width="64" height="16"/>
    <polygon fill="#3ca" points="0,0 64,0 0,16"/>
    <rect    fill="#286" x="1" y="1" width="62" height="14"/>
  </g>
</svg>
