<svg xmlns="http://www.w3.org/2000/svg" width="12" height="1" viewBox="0 0 12 1">
  <g id="purple">
    <rect    fill="#208" x="0" y="0" width="3" height="1"/>
    <polygon fill="#85b" points="0,0 3,0 0,1"/>
    <rect    fill="#529" x="0.1" y="0.1" width="2.8" height="0.8"/>
  </g>
  <g id="red" transform="translate(3)">
    <rect    fill="#713" x="0" y="0" width="3" height="1"/>
    <polygon fill="#e36" points="0,0 3,0 0,1"/>
    <rect    fill="#b13" x="0.1" y="0.1" width="2.8" height="0.8"/>
  </g>
  <g id="yellow" transform="translate(6)">
    <rect    fill="#852" x="0" y="0" width="3" height="1"/>
    <polygon fill="#fd5" points="0,0 3,0 0,1"/>
    <rect    fill="#ea1" x="0.1" y="0.1" width="2.8" height="0.8"/>
  </g>
  <g id="green" transform="translate(9)">
    <rect    fill="#257" x="0" y="0" width="3" height="1"/>
    <polygon fill="#3ca" points="0,0 3,0 0,1"/>
    <rect    fill="#286" x="0.1" y="0.1" width="2.8" height="0.8"/>
  </g>
</svg>
